<svg width="32" height="32" viewBox="0 0 32 32" fill="none" xmlns="http://www.w3.org/2000/svg">
    <path
        d="M0 3.90244C0 1.74718 1.74718 0 3.90244 0H28.0976C30.2528 0 32 1.74718 32 3.90244V28.0976C32 30.2528 30.2528 32 28.0976 32H3.90244C1.74718 32 0 30.2528 0 28.0976V3.90244Z"
        fill="black" />
    <path
        d="M16.9348 9.62653C16.9348 9.68858 16.9354 9.75048 16.9366 9.81222L10.3364 23.9546C10.2883 23.9838 10.2323 24.0001 10.1738 24.0001H5.3125C5.13984 24.0001 4.99988 23.8603 4.99988 23.6878C4.99988 23.6422 5.00988 23.5971 5.02917 23.5558L11.4433 9.81379C11.479 9.73717 11.5435 9.6798 11.6204 9.65204L11.6203 9.62653H16.9348ZM16.8826 11.3548C17.6612 15.381 21.1088 18.4569 25.3127 18.6718L25.4293 18.6744L25.4632 18.6725C25.6402 18.6725 25.7836 18.8158 25.7836 18.9927V23.6673C25.7836 23.8294 25.6631 23.9633 25.5067 23.9845L25.4895 23.9863C25.4798 23.9887 25.4707 23.9897 25.4622 23.9897C20.6617 23.8845 16.441 21.4292 13.9071 17.7296L16.8826 11.3548ZM24.9627 6.00012C25.0007 6.44754 25.0208 6.89081 25.0786 7.32907C25.0936 7.44228 25.1072 7.56353 25.1194 7.69153C25.2295 8.21578 25.4374 8.70872 25.8594 9.13064C26.5705 9.84163 27.4844 9.9437 28.4131 9.99923L28.8534 10.0243L28.9999 10.0334V10.3776L28.5704 10.4056C28.4277 10.4149 28.2854 10.4243 28.1431 10.4342C26.3535 10.5595 25.4229 11.2674 25.1095 12.8016L25.101 12.8886C25.0972 12.9264 25.0933 12.9631 25.0893 12.9984L25.0786 13.0884C25.0308 13.4708 25.0075 13.8564 24.9747 14.2661L24.9676 14.4327H24.633C24.5835 13.9607 24.5528 13.4904 24.4861 13.0261L24.4686 12.9102C24.4605 12.8588 24.4529 12.8027 24.4459 12.7425C24.1363 11.3355 23.3429 10.663 21.8196 10.4782C21.4225 10.43 21.0218 10.4127 20.5895 10.3786L20.5634 10.0331L20.7681 10.0222C20.7996 10.0204 20.8303 10.0184 20.8606 10.0159L20.906 10.0118C21.349 9.96704 21.7976 9.94999 22.2338 9.86796C23.5057 9.62894 24.2314 8.8953 24.462 7.60947C24.4855 7.47794 24.5051 7.34568 24.522 7.2126L24.531 7.11546C24.5658 6.75128 24.5871 6.38583 24.6162 6.00012H24.9627Z"
        fill="#11E097" />
</svg>
