<svg width="43" height="42" viewBox="0 0 43 42" fill="none" xmlns="http://www.w3.org/2000/svg">
<path d="M34.957 -7.82013e-05H8.95695C4.53868 -7.82013e-05 0.956955 3.58164 0.956955 7.99992V33.9999C0.956955 38.4182 4.53868 41.9999 8.95695 41.9999H34.957C39.3752 41.9999 42.957 38.4182 42.957 33.9999V7.99992C42.957 3.58164 39.3752 -7.82013e-05 34.957 -7.82013e-05Z" fill="black"/>
<mask id="mask0_3162_5849" style="mask-type:alpha" maskUnits="userSpaceOnUse" x="5" y="12" width="35" height="18">
<path d="M8.81522 26.0781C8.29293 26.0946 7.77424 26.0774 7.271 25.9106C6.11571 25.5279 5.36877 24.7552 5.08408 23.5418C4.93886 22.9231 4.99781 22.3125 5.13943 21.6987C5.44102 20.3911 5.72391 19.0789 6.01686 17.7692C6.32707 16.3819 6.64016 14.995 6.95324 13.6085C6.98667 13.4607 7.0219 13.3122 7.07007 13.1687C7.23757 12.669 7.73326 12.3043 8.25986 12.2856C8.8145 12.2659 9.29725 12.5629 9.50825 13.0674C9.63801 13.378 9.60746 13.6992 9.53629 14.0186C9.32457 14.9672 9.11537 15.9166 8.90041 16.8648C8.73003 17.6177 8.54922 18.3684 8.38028 19.1217C8.23794 19.7557 8.10853 20.393 7.96834 21.0273C7.88962 21.3833 7.7994 21.7363 7.71744 22.0916C7.65274 22.3722 7.59846 22.6575 7.72535 22.933C7.90149 23.3153 8.21924 23.4821 8.62147 23.4942C8.89646 23.5026 9.17288 23.511 9.4475 23.496C10.0967 23.4598 10.6945 24.0375 10.7149 24.6927C10.7383 25.428 10.1312 26.1008 9.46152 26.0792C9.24621 26.0723 9.03053 26.0781 8.81522 26.0781Z" fill="white"/>
<path d="M29.3174 18.9997C29.7811 18.6182 30.1308 18.1433 30.3695 17.5869C30.5334 17.2049 30.5086 16.8164 30.3177 16.4601C30.0855 16.0262 29.7056 15.8082 29.2138 15.8027C28.6822 15.7965 28.3026 16.0474 28.0453 16.5095C27.9687 16.647 27.9015 16.7915 27.8123 16.92C27.6391 17.1687 27.4 17.2269 27.1369 17.086C26.3979 16.6906 25.6096 16.5387 24.78 16.5614C24.0104 16.5823 23.276 16.7473 22.6337 17.1852C22.0841 17.5598 21.5575 17.9728 21.0445 18.399C20.4845 18.8644 19.9525 19.3652 19.4072 19.8489C18.7584 20.4243 18.107 20.9972 17.4586 21.5731C17.0937 21.8972 16.7239 22.2155 16.4658 22.6439C16.4039 22.7463 16.3202 22.8385 16.2321 22.9197C15.2666 23.8102 13.7192 23.6872 12.9596 22.713C12.4952 22.1174 12.3885 21.4388 12.5693 20.7309C12.7314 20.0954 13.1541 19.6414 13.7296 19.3381C14.6351 18.8611 15.9686 19.1435 16.4679 19.9652C16.6825 20.3182 16.9906 20.5458 17.4029 20.6069C18.0733 20.7064 18.5689 20.4137 18.9715 19.8942C19.0776 19.7574 19.0912 19.633 19.0366 19.4746C18.8802 19.021 18.6469 18.6116 18.3497 18.2421C17.6329 17.3509 16.7059 16.8322 15.5934 16.6405C14.3964 16.4341 13.2508 16.5929 12.2235 17.2525C10.5463 18.3299 9.7738 19.8939 9.95963 21.9217C10.0243 22.627 10.2591 23.2819 10.6289 23.8713C11.2059 24.7903 12.0445 25.4019 13.0376 25.7784C13.9809 26.1358 14.9546 26.1771 15.9316 25.9225C17.2012 25.5918 18.1635 24.8492 18.8047 23.6781C18.9482 23.4165 19.0456 23.1268 19.2968 22.9267C19.5876 22.6944 19.8515 22.4273 20.125 22.173C20.1883 22.1141 20.2444 22.0468 20.322 21.9634C20.3522 22.1039 20.3741 22.2096 20.3975 22.3153C20.7167 23.7582 21.5467 24.7705 22.8925 25.3225C23.9166 25.7425 24.9521 25.6639 25.9816 25.3174C26.1103 25.2743 26.2412 25.2366 26.4234 25.1802C26.336 25.8581 26.1387 26.4204 25.6333 26.8163C25.0934 27.2392 24.459 27.2911 23.8069 27.2392C23.3159 27.2 22.8634 27.0263 22.4187 26.8269C21.6883 26.4998 20.9809 26.7599 20.6595 27.4755C20.3745 28.1106 20.6689 28.843 21.3468 29.173C21.5247 29.2597 21.7045 29.3464 21.8907 29.4097C23.0981 29.8194 24.3217 29.916 25.5643 29.5864C26.2825 29.3958 26.9306 29.0713 27.477 28.5525C28.3238 27.7484 28.7404 26.7259 28.9281 25.5867C29.0622 24.7723 29.2113 23.9602 29.3357 23.144C29.4353 22.4906 29.5316 21.8346 29.5859 21.1761C29.638 20.5436 29.5431 19.9235 29.2408 19.3542C29.1617 19.2053 29.1836 19.1099 29.317 19.0005L29.3174 18.9997ZM24.8763 23.3013C23.6847 23.3071 22.7447 22.3922 22.7476 21.2288C22.7505 20.016 23.7221 19.0404 24.9306 19.0374C26.1225 19.0345 27.0352 19.9561 27.0435 21.1714C27.0514 22.3603 26.1002 23.2951 24.8767 23.3009L24.8763 23.3013Z" fill="white"/>
<path d="M39.9993 21.3439C40.0248 18.6718 37.9702 16.5817 35.3293 16.5602C32.5906 16.5375 30.5273 18.7449 30.5345 21.417C30.5417 24.0522 32.7818 26.1261 35.3976 26.076C38.0097 26.0259 40.0522 23.8473 39.999 21.3439H39.9993ZM35.3494 23.5202C34.0798 23.5722 33.0546 22.5438 33.0748 21.3823C33.0388 20.1735 33.885 19.1657 35.1661 19.102C36.5284 19.0347 37.3836 19.9405 37.4515 21.2173C37.5137 22.3905 36.7452 23.4632 35.3494 23.5199V23.5202Z" fill="white"/>
</mask>
<g mask="url(#mask0_3162_5849)">
<rect x="2.02969" y="9.6939" width="41.1525" height="24.396" fill="white"/>
</g>
</svg>
