<svg width="30" height="30" viewBox="0 0 30 30" fill="none" xmlns="http://www.w3.org/2000/svg">
<circle cx="15" cy="15" r="15" fill="#11E097"/>
<circle cx="15" cy="15" r="15" fill="black"/>
<path d="M11.008 22.096C10.4747 22.096 10.008 21.9787 9.608 21.744C9.21333 21.504 8.90667 21.1707 8.688 20.744C8.46933 20.3173 8.36 19.8187 8.36 19.248C8.36 18.672 8.472 18.1627 8.696 17.72C8.92533 17.2773 9.25333 16.9307 9.68 16.68C10.1067 16.4293 10.616 16.304 11.208 16.304C11.8747 16.304 12.4267 16.464 12.864 16.784C13.3067 17.104 13.592 17.5467 13.72 18.112H12.384C12.304 17.888 12.1627 17.7147 11.96 17.592C11.7627 17.4693 11.5093 17.408 11.2 17.408C10.848 17.408 10.552 17.4853 10.312 17.64C10.072 17.7893 9.89067 18.0027 9.768 18.28C9.64533 18.552 9.584 18.8747 9.584 19.248C9.584 19.632 9.64533 19.9573 9.768 20.224C9.89067 20.4907 10.0693 20.6933 10.304 20.832C10.5387 20.9653 10.816 21.032 11.136 21.032C11.5947 21.032 11.9413 20.912 12.176 20.672C12.416 20.432 12.5627 20.1307 12.616 19.768H11.312V18.872H13.816V22H12.712L12.616 21.352C12.504 21.512 12.3707 21.648 12.216 21.76C12.0667 21.872 11.8907 21.9547 11.688 22.008C11.4907 22.0667 11.264 22.096 11.008 22.096Z" fill="white"/>
<path d="M18.144 22.096C17.5947 22.096 17.112 21.9733 16.696 21.728C16.28 21.4827 15.952 21.144 15.712 20.712C15.4773 20.2747 15.36 19.7707 15.36 19.2C15.36 18.6293 15.4773 18.128 15.712 17.696C15.952 17.2587 16.28 16.9173 16.696 16.672C17.112 16.4267 17.5947 16.304 18.144 16.304C18.6933 16.304 19.1787 16.4267 19.6 16.672C20.0213 16.9173 20.3467 17.2587 20.576 17.696C20.8107 18.128 20.928 18.6293 20.928 19.2C20.928 19.7707 20.8107 20.2747 20.576 20.712C20.3467 21.144 20.0213 21.4827 19.6 21.728C19.1787 21.9733 18.6933 22.096 18.144 22.096ZM18.144 21.016C18.4693 21.016 18.7467 20.9413 18.976 20.792C19.2107 20.6427 19.392 20.4347 19.52 20.168C19.648 19.896 19.712 19.5733 19.712 19.2C19.712 18.8267 19.648 18.5067 19.52 18.24C19.392 17.968 19.2107 17.76 18.976 17.616C18.7467 17.4667 18.4693 17.392 18.144 17.392C17.8293 17.392 17.5547 17.4667 17.32 17.616C17.0853 17.76 16.904 17.968 16.776 18.24C16.648 18.5067 16.584 18.8267 16.584 19.2C16.584 19.5733 16.648 19.896 16.776 20.168C16.904 20.4347 17.0853 20.6427 17.32 20.792C17.5547 20.9413 17.8293 21.016 18.144 21.016Z" fill="white"/>
<path d="M18.144 14.096C17.5947 14.096 17.112 13.9733 16.696 13.728C16.28 13.4827 15.952 13.144 15.712 12.712C15.4773 12.2747 15.36 11.7707 15.36 11.2C15.36 10.6293 15.4773 10.128 15.712 9.696C15.952 9.25867 16.28 8.91733 16.696 8.672C17.112 8.42667 17.5947 8.304 18.144 8.304C18.6933 8.304 19.1787 8.42667 19.6 8.672C20.0213 8.91733 20.3467 9.25867 20.576 9.696C20.8107 10.128 20.928 10.6293 20.928 11.2C20.928 11.7707 20.8107 12.2747 20.576 12.712C20.3467 13.144 20.0213 13.4827 19.6 13.728C19.1787 13.9733 18.6933 14.096 18.144 14.096ZM18.144 13.016C18.4693 13.016 18.7467 12.9413 18.976 12.792C19.2107 12.6427 19.392 12.4347 19.52 12.168C19.648 11.896 19.712 11.5733 19.712 11.2C19.712 10.8267 19.648 10.5067 19.52 10.24C19.392 9.968 19.2107 9.76 18.976 9.616C18.7467 9.46667 18.4693 9.392 18.144 9.392C17.8293 9.392 17.5547 9.46667 17.32 9.616C17.0853 9.76 16.904 9.968 16.776 10.24C16.648 10.5067 16.584 10.8267 16.584 11.2C16.584 11.5733 16.648 11.896 16.776 12.168C16.904 12.4347 17.0853 12.6427 17.32 12.792C17.5547 12.9413 17.8293 13.016 18.144 13.016Z" fill="white"/>
<path d="M8.68005 14V8.4H9.88005V13.072H13.144V14H8.68005Z" fill="white"/>
</svg>
